<svg width="40" height="40" viewBox="0 0 40 40" fill="none" xmlns="http://www.w3.org/2000/svg">
<circle cx="20" cy="20" r="20" transform="matrix(-1 0 0 1 40 0)" fill="#F5B80F"/>
<path d="M13.9393 22.0607C13.3536 21.4749 13.3536 20.5251 13.9393 19.9393L23.4853 10.3934C24.0711 9.80761 25.0208 9.80761 25.6066 10.3934C26.1924 10.9792 26.1924 11.9289 25.6066 12.5147L17.1213 21L25.6066 29.4853C26.1924 30.0711 26.1924 31.0208 25.6066 31.6066C25.0208 32.1924 24.0711 32.1924 23.4853 31.6066L13.9393 22.0607ZM16 22.5L15 22.5L15 19.5L16 19.5L16 22.5Z" fill="black"/>
</svg>
