<svg width="28" height="27" viewBox="0 0 28 27" fill="none" xmlns="http://www.w3.org/2000/svg">
<circle cx="13.3578" cy="13.3578" r="13.0239" transform="matrix(-1 0 0 1 27.1558 0.28418)" fill="white" stroke="#F5B80F" stroke-width="0.667891"/>
<path d="M9.75017 15.0185C9.35893 14.6272 9.35893 13.9929 9.75017 13.6017L16.1258 7.22601C16.5171 6.83477 17.1514 6.83477 17.5426 7.22601C17.9339 7.61725 17.9339 8.25158 17.5426 8.64282L11.8754 14.3101L17.5426 19.9773C17.9339 20.3685 17.9339 21.0029 17.5426 21.3941C17.1514 21.7853 16.5171 21.7853 16.1258 21.3941L9.75017 15.0185ZM11.1265 15.3119L10.4586 15.3119L10.4586 13.3082L11.1265 13.3082L11.1265 15.3119Z" fill="#F5B80F"/>
</svg>
