<svg width="35" height="35" viewBox="0 0 35 35" fill="none" xmlns="http://www.w3.org/2000/svg">
<path d="M17.5 0C14.0388 0 10.6554 1.02636 7.77753 2.94928C4.89967 4.87221 2.65665 7.60533 1.33212 10.803C0.00758254 14.0007 -0.338976 17.5194 0.336265 20.9141C1.01151 24.3087 2.67822 27.427 5.12564 29.8744C7.57306 32.3218 10.6913 33.9885 14.0859 34.6637C17.4806 35.339 20.9993 34.9924 24.197 33.6679C27.3947 32.3434 30.1278 30.1003 32.0507 27.2225C33.9737 24.3446 35 20.9612 35 17.5C35 12.8587 33.1563 8.40752 29.8744 5.12563C26.5925 1.84374 22.1413 0 17.5 0ZM27.5864 24.3489C27.0773 24.4205 24.5875 24.3489 24.4582 24.3489C23.8146 24.3573 23.1936 24.1115 22.7301 23.6648C22.2051 23.1577 21.7358 22.6009 21.2227 22.0739C21.0715 21.9121 20.9073 21.7631 20.7315 21.6284C20.3219 21.3142 19.9162 21.3838 19.7233 21.869C19.5727 22.3913 19.4676 22.9256 19.4091 23.4659C19.3753 23.9551 19.0651 24.2614 18.5162 24.2952C18.1761 24.3131 17.8361 24.321 17.5 24.3111C16.2751 24.3044 15.0693 24.0065 13.9821 23.442C12.8055 22.787 11.7802 21.8912 10.9733 20.8131C9.64688 19.1188 8.58694 17.2574 7.64035 15.3384C7.59063 15.2409 6.62018 13.1767 6.59631 13.0793C6.50881 12.7551 6.59631 12.4429 6.86478 12.3335C7.0358 12.2679 10.2335 12.3335 10.2872 12.3335C10.5251 12.3319 10.7574 12.406 10.9504 12.545C11.1435 12.6841 11.2873 12.8809 11.3611 13.1071C11.9527 14.6204 12.762 16.0394 13.7634 17.319C13.9036 17.4895 14.0677 17.6388 14.2506 17.7625C14.5111 17.9415 14.7577 17.8798 14.8651 17.5776C14.9925 17.161 15.0673 16.7301 15.0878 16.2949C15.1057 15.4318 15.0878 14.8651 15.0401 14.002C15.0082 13.4491 14.8134 12.9659 13.998 12.8088C13.7474 12.7631 13.7256 12.5562 13.8867 12.3494C14.2227 11.9219 14.6821 11.8523 15.1972 11.8264C15.9648 11.7827 16.7324 11.8125 17.5 11.8264H17.6671C18.0011 11.8252 18.3344 11.8592 18.6614 11.9278C18.8548 11.9673 19.0303 12.0682 19.1618 12.2155C19.2933 12.3627 19.3738 12.5485 19.3912 12.7452C19.4307 12.9629 19.4473 13.1842 19.4409 13.4054C19.421 14.346 19.3753 15.2886 19.3653 16.2293C19.3561 16.6025 19.3901 16.9755 19.4668 17.3409C19.5761 17.842 19.9202 17.9673 20.2622 17.6054C20.7055 17.1386 21.1118 16.6379 21.4773 16.108C22.1251 15.142 22.659 14.1043 23.0682 13.0156C23.2909 12.4568 23.4659 12.3335 24.0625 12.3335H27.4551C27.6568 12.33 27.858 12.3568 28.0517 12.4131C28.1203 12.4311 28.1844 12.4631 28.2401 12.507C28.2957 12.551 28.3417 12.6059 28.3751 12.6685C28.4085 12.731 28.4286 12.7998 28.4343 12.8705C28.4399 12.9412 28.4308 13.0122 28.4077 13.0793C28.2406 13.823 27.8389 14.4574 27.4134 15.0679C26.7233 16.0443 25.9955 16.9969 25.2895 17.9614C25.2046 18.0861 25.1269 18.2155 25.0568 18.3491C24.7903 18.8304 24.8102 19.0989 25.196 19.4966C25.8125 20.131 26.4707 20.7236 27.0653 21.3759C27.5015 21.8504 27.8954 22.3621 28.2426 22.9051C28.6662 23.5892 28.3977 24.2335 27.5864 24.3489Z" fill="white"/>
</svg>
