<svg width="45" height="44" viewBox="0 0 45 44" fill="none" xmlns="http://www.w3.org/2000/svg">
<path d="M0.527832 21.9406C0.527832 9.82315 10.351 0 22.4684 0V0C34.5859 0 44.4091 9.82315 44.4091 21.9406V21.9406C44.4091 34.0581 34.5859 43.8812 22.4684 43.8812V43.8812C10.351 43.8812 0.527832 34.0581 0.527832 21.9406V21.9406Z" fill="#F5B80F"/>
<g clip-path="url(#clip0_2012_17)">
<path d="M34.8522 29.5568C34.6959 28.812 34.2064 28.1453 33.5032 27.7287C32.2011 26.963 30.8522 26.2235 29.5501 25.5099L28.6595 25.0203C27.5241 24.4006 26.748 24.5151 26.2949 24.7235C25.8626 24.9214 25.2949 25.3953 25.0501 26.536C25.0449 26.5516 25.0397 26.5724 25.0397 26.5932C24.9616 26.8901 24.7428 27.0099 24.6178 27.0568C24.3313 27.1557 23.9928 27.088 23.7116 26.8693C21.5397 25.1609 19.6595 23.286 17.9616 21.1453C17.7428 20.8745 17.6751 20.5412 17.7793 20.2547C17.8261 20.1245 17.9564 19.8901 18.3209 19.812C18.3366 19.8068 18.3574 19.8068 18.373 19.8016C19.5293 19.5464 19.9876 18.9526 20.1751 18.4995C20.3782 17.9891 20.4459 17.1141 19.6074 15.8537C18.9772 14.911 18.4512 13.8797 17.9407 12.8797C17.7064 12.4266 17.4772 11.9735 17.2376 11.5255C16.7584 10.6401 16.1178 10.088 15.3886 9.92657C14.7272 9.78597 14.0293 9.97346 13.3678 10.4735C12.7116 10.9735 12.0188 11.5255 11.3626 12.161C9.95115 13.536 9.62823 15.2755 10.4303 17.187C13.8314 25.3276 19.6907 31.1453 27.8522 34.4839C28.4876 34.7495 29.1126 34.8797 29.7064 34.8797C30.7793 34.8797 31.7637 34.4526 32.6178 33.6089C33.3105 32.9266 33.9199 32.1401 34.4407 31.4474C34.8418 30.9005 34.9876 30.2287 34.8522 29.5568Z" fill="black"/>
</g>
<defs>
<clipPath id="clip0_2012_17">
<rect width="25" height="25" fill="white" transform="translate(10 9.88123)"/>
</clipPath>
</defs>
</svg>
