<svg width="35" height="35" viewBox="0 0 35 35" fill="none" xmlns="http://www.w3.org/2000/svg">
<path fill-rule="evenodd" clip-rule="evenodd" d="M17.5 0C7.83502 0 0 7.83502 0 17.5C0 27.165 7.83502 35 17.5 35C27.165 35 35 27.165 35 17.5C35 7.83502 27.165 0 17.5 0ZM18.3263 11.7249C16.3559 12.534 12.418 14.2087 6.51239 16.7489C5.55341 17.1254 5.05106 17.4937 5.00533 17.8539C4.92804 18.4625 5.70008 18.7022 6.75139 19.0286C6.8944 19.0729 7.04257 19.1189 7.19447 19.1677C8.2288 19.4996 9.62016 19.888 10.3435 19.9034C10.9996 19.9174 11.7319 19.6503 12.5403 19.1022C18.0581 15.425 20.9064 13.5664 21.0852 13.5263C21.2114 13.498 21.3862 13.4625 21.5046 13.5664C21.6231 13.6704 21.6115 13.8672 21.5989 13.92C21.5224 14.2419 18.4919 17.0235 16.9236 18.463C16.4347 18.9117 16.0879 19.23 16.017 19.3027C15.8582 19.4656 15.6963 19.6196 15.5408 19.7677C14.5799 20.6822 13.8593 21.3681 15.5807 22.488C16.4079 23.0262 17.0699 23.4713 17.7303 23.9153C18.4515 24.4002 19.1708 24.8838 20.1015 25.4861C20.3387 25.6396 20.5651 25.799 20.7857 25.9542C21.625 26.545 22.3791 27.0757 23.3107 26.9911C23.852 26.9419 24.4111 26.4394 24.6951 24.9406C25.3662 21.3986 26.6854 13.7241 26.9902 10.5616C27.0169 10.2846 26.9833 9.92995 26.9563 9.77429C26.9294 9.61863 26.873 9.39685 26.668 9.23267C26.4253 9.03823 26.0506 8.99723 25.883 9.00014C25.1211 9.01339 23.9521 9.4147 18.3263 11.7249Z" fill="white"/>
</svg>
