<svg width="44" height="44" viewBox="0 0 44 44" fill="none" xmlns="http://www.w3.org/2000/svg">
<path d="M0 21.9406C0 9.82315 9.82315 0 21.9406 0V0C34.0581 0 43.8812 9.82315 43.8812 21.9406V21.9406C43.8812 34.0581 34.0581 43.8812 21.9406 43.8812V43.8812C9.82315 43.8812 0 34.0581 0 21.9406V21.9406Z" fill="#F5B80F"/>
<path fill-rule="evenodd" clip-rule="evenodd" d="M8.24762 20.7868C15.5293 17.6341 20.385 15.5557 22.8145 14.5516C29.7513 11.6844 31.1927 11.1864 32.1321 11.1699C32.3388 11.1663 32.8008 11.2172 33.1001 11.4585C33.3528 11.6623 33.4223 11.9375 33.4556 12.1307C33.4888 12.3239 33.5303 12.764 33.4973 13.1079C33.1214 17.0327 31.4949 26.5574 30.6674 30.9534C30.3172 32.8135 29.6278 33.4372 28.9603 33.4982C27.5098 33.6308 26.4083 32.5456 25.0034 31.6304C22.805 30.1984 21.563 29.3069 19.4291 27.9095C16.9629 26.2945 18.5616 25.4069 19.9671 23.9563C20.3349 23.5767 26.726 17.7999 26.8497 17.2759C26.8652 17.2104 26.8795 16.9661 26.7335 16.8371C26.5874 16.7081 26.3719 16.7522 26.2163 16.7872C25.9958 16.837 22.4838 19.1437 15.6803 23.7075C14.6834 24.3877 13.7805 24.7192 12.9714 24.7018C12.0796 24.6826 10.364 24.2007 9.08866 23.7887C7.52438 23.2834 6.28112 23.0163 6.38938 22.1581C6.44577 21.7111 7.06519 21.254 8.24762 20.7868Z" fill="black"/>
</svg>
