<svg width="45" height="44" viewBox="0 0 45 44" fill="none" xmlns="http://www.w3.org/2000/svg">
<path d="M0.263916 21.9406C0.263916 9.82315 10.0871 0 22.2045 0V0C34.322 0 44.1451 9.82315 44.1451 21.9406V21.9406C44.1451 34.0581 34.322 43.8812 22.2045 43.8812V43.8812C10.0871 43.8812 0.263916 34.0581 0.263916 21.9406V21.9406Z" fill="#F5B80F"/>
<path d="M7.44434 36.7007L9.5856 28.9153C8.26429 26.6364 7.56999 24.0531 7.57126 21.404C7.57507 13.1222 14.3467 6.38275 22.6668 6.38275C26.7043 6.38401 30.4944 7.94918 33.3452 10.789C36.1947 13.6287 37.7635 17.4033 37.7623 21.4179C37.7585 29.701 30.9869 36.4405 22.6668 36.4405C20.1409 36.4392 17.6519 35.8088 15.4471 34.6113L7.44434 36.7007ZM15.8178 31.8915C17.9451 33.1484 19.9759 33.9013 22.6617 33.9026C29.5767 33.9026 35.2098 28.3014 35.2136 21.4154C35.2161 14.5155 29.6097 8.92188 22.6718 8.91935C15.7517 8.91935 10.1225 14.5206 10.12 21.4053C10.1187 24.216 10.9463 26.3206 12.3361 28.5224L11.0681 33.1308L15.8178 31.8915ZM30.271 24.9891C30.1771 24.8325 29.9258 24.739 29.5475 24.5508C29.1705 24.3626 27.3161 23.4543 26.9696 23.3292C26.6244 23.2042 26.3731 23.141 26.1205 23.5174C25.8691 23.8926 25.1457 24.739 24.9261 24.9891C24.7065 25.2392 24.4856 25.2708 24.1087 25.0826C23.7317 24.8944 22.5157 24.499 21.0751 23.2193C19.9543 22.2239 19.1966 20.9947 18.977 20.6183C18.7574 20.2431 18.9541 20.0397 19.142 19.8528C19.3121 19.6847 19.519 19.4144 19.7081 19.1946C19.8997 18.9773 19.9619 18.8207 20.0889 18.5693C20.2145 18.3192 20.1523 18.0994 20.0571 17.9111C19.9619 17.7242 19.208 15.8761 18.8945 15.1244C18.5873 14.393 18.2763 14.4915 18.0453 14.4802L17.3218 14.4675C17.0705 14.4675 16.6618 14.561 16.3166 14.9375C15.9713 15.3139 14.9965 16.2209 14.9965 18.0691C14.9965 19.9172 16.3483 21.7022 16.5362 21.9523C16.7253 22.2024 19.1953 25.9947 22.979 27.6205C23.8789 28.007 24.5821 28.2382 25.1292 28.4113C26.0329 28.6968 26.8554 28.6563 27.5052 28.5603C28.23 28.4529 29.7366 27.652 30.0514 26.7754C30.3662 25.8974 30.3662 25.1458 30.271 24.9891Z" fill="black"/>
</svg>
