<svg width="137" height="22" viewBox="0 0 137 22" fill="none" xmlns="http://www.w3.org/2000/svg">
<path d="M57.4221 13.7389L44.3358 0.293945H43.1306V20.8379H46.5868V7.2627L59.7061 20.8379H60.8783V0.293945H57.4221V13.7389Z" fill="white"/>
<path d="M110.799 0.293945H107.401V20.8379H120.528V17.609H110.799V0.293945Z" fill="white"/>
<path d="M31.2826 0.00196331C29.5458 0.00453964 27.8487 0.495836 26.4059 1.41376C24.9631 2.33169 23.8393 3.63505 23.1765 5.15914C22.5137 6.68322 22.3417 8.35961 22.6822 9.97647C23.0227 11.5933 23.8604 13.0781 25.0895 14.2431C26.3186 15.4081 27.8839 16.2011 29.5876 16.5218C31.2912 16.8425 33.0568 16.6766 34.6612 16.045C36.2656 15.4134 37.6367 14.3445 38.6014 12.9734C39.5661 11.6022 40.0809 9.99039 40.0809 8.34153C40.0809 7.24527 39.8533 6.15976 39.4109 5.1471C38.9686 4.13445 38.3203 3.21453 37.5031 2.43995C36.6859 1.66538 35.7159 1.05137 34.6485 0.633031C33.5812 0.214696 32.4374 0.000250392 31.2826 0.00196331ZM34.478 11.7086C34.9233 10.7579 35.1748 9.73562 35.2192 8.69596H37.6405C37.557 10.1233 36.941 11.4759 35.9028 12.5113C35.4593 12.1964 34.9817 11.9273 34.478 11.7086ZM31.645 11.0571V8.69596H34.4945C34.448 9.64781 34.2143 10.583 33.8054 11.4532C33.1086 11.225 32.3812 11.0916 31.645 11.0571ZM33.476 12.0761C33.0049 12.8819 32.3847 13.6006 31.645 14.1975V11.7477C32.2682 11.7776 32.8842 11.8881 33.476 12.0761ZM33.6297 4.88843C34.1477 5.86109 34.4424 6.927 34.4945 8.01577H31.645V5.23244C32.3195 5.20057 32.9868 5.08492 33.6297 4.88843ZM31.645 4.54182V2.50644C32.2798 3.01446 32.8296 3.61112 33.2756 4.27599C32.745 4.42543 32.1977 4.51466 31.645 4.54182ZM35.2137 8.00795C35.1607 6.84061 34.8522 5.69655 34.3078 4.64867C34.7755 4.45785 35.2224 4.22392 35.642 3.95023C36.8304 5.00975 37.544 6.46263 37.635 8.00795H35.2137ZM35.06 3.48895C34.7119 3.70357 34.3444 3.88846 33.9619 4.04144C33.575 3.4536 33.1141 2.91275 32.5893 2.43086C33.4852 2.61063 34.3297 2.97151 35.0655 3.48895H35.06ZM28.746 11.4532C28.3347 10.5838 28.1008 9.64816 28.057 8.69596H30.9038V11.0571C30.174 11.0931 29.4531 11.2264 28.7625 11.4532H28.746ZM30.9038 11.7477V14.1975C30.1656 13.5991 29.5456 12.8808 29.0727 12.0761C29.6699 11.8871 30.2915 11.7766 30.9202 11.7477H30.9038ZM26.6652 12.5113C25.6264 11.4752 25.0103 10.1216 24.9275 8.69336H27.3487C27.3935 9.73268 27.644 10.7547 28.0872 11.706C27.5843 11.9255 27.1076 12.1955 26.6652 12.5113ZM26.9205 3.94762C27.3401 4.22131 27.7869 4.45525 28.2547 4.64606C27.7081 5.69319 27.3994 6.83769 27.3487 8.00534H24.9275C25.0192 6.46094 25.7327 5.0091 26.9205 3.95023V3.94762ZM28.0735 8.00534C28.1246 6.91675 28.4184 5.85084 28.9355 4.878C29.5785 5.07406 30.2457 5.1897 30.9202 5.22201V8.00795L28.0735 8.00534ZM29.3033 4.27339C29.7451 3.60941 30.2902 3.01279 30.9202 2.50383V4.53921C30.3722 4.5121 29.8295 4.42376 29.3033 4.27599V4.27339ZM28.6088 4.04144C28.2263 3.88846 27.8588 3.70357 27.5107 3.48895C28.2446 2.97176 29.0873 2.61087 29.9814 2.43086C29.4566 2.91275 28.9956 3.4536 28.6088 4.04144ZM27.2005 12.9961C27.5779 12.734 27.9826 12.5096 28.4084 12.3263C28.8285 13.0462 29.3586 13.7031 29.9814 14.2757C28.9574 14.0735 28.0021 13.6339 27.2005 12.9961ZM34.1596 12.3263C34.5853 12.5096 34.9901 12.734 35.3674 12.9961C34.5667 13.6335 33.6123 14.073 32.5893 14.2757C33.2102 13.7022 33.7393 13.0454 34.1596 12.3263Z" fill="white"/>
<path d="M11.5527 18.3725C10.1499 18.3726 8.771 18.0281 7.54993 17.3726C6.32886 16.7171 5.30719 15.7728 4.58422 14.6316C3.86125 13.4904 3.46157 12.191 3.42402 10.8598C3.38648 9.52856 3.71235 8.21074 4.36996 7.03443C5.02757 5.85812 5.99455 4.86333 7.17692 4.14673C8.35929 3.43014 9.71683 3.01612 11.1176 2.94491C12.5184 2.87371 13.9147 3.14775 15.1709 3.74039C16.4271 4.33303 17.5005 5.22411 18.2867 6.32703L20.7573 4.58876C19.3937 2.72132 17.4366 1.31694 15.1721 0.580928C12.9076 -0.155083 10.4545 -0.184131 8.17142 0.49803C5.88831 1.18019 3.89492 2.53779 2.48265 4.37236C1.07039 6.20693 0.313311 8.42226 0.322097 10.6945C0.330883 12.9668 1.10507 15.1768 2.53149 17.0014C3.9579 18.8261 5.96174 20.1698 8.25007 20.836C10.5384 21.5022 12.9912 21.4561 15.2499 20.7043C17.5087 19.9525 19.4548 18.5346 20.804 16.6577L18.3141 14.9142C17.5754 15.9757 16.5713 16.847 15.3915 17.4505C14.2117 18.0539 12.8929 18.3707 11.5527 18.3725Z" fill="white"/>
<path d="M98.7783 12.8215C98.7947 13.5212 98.6638 14.2169 98.3931 14.8678C98.1224 15.5187 97.7175 16.1117 97.2021 16.612C96.6867 17.1123 96.0712 17.5099 95.3917 17.7813C94.7123 18.0527 93.9825 18.1925 93.2454 18.1925C92.5082 18.1925 91.7785 18.0527 91.0991 17.7813C90.4196 17.5099 89.8041 17.1123 89.2887 16.612C88.7733 16.1117 88.3684 15.5187 88.0977 14.8678C87.827 14.2169 87.6961 13.5212 87.7125 12.8215V0.293945H84.3112V12.8215C84.2904 13.9479 84.5061 15.0669 84.9458 16.1132C85.3854 17.1595 86.0402 18.1122 86.8719 18.9157C87.7035 19.7192 88.6955 20.3574 89.7898 20.7931C90.884 21.2287 92.0588 21.4531 93.2454 21.4531C94.432 21.4531 95.6067 21.2287 96.701 20.7931C97.7953 20.3574 98.7873 19.7192 99.6189 18.9157C100.451 18.1122 101.105 17.1595 101.545 16.1132C101.985 15.0669 102.2 13.9479 102.18 12.8215V0.293945H98.7783V12.8215Z" fill="white"/>
<path d="M118.937 0.293945V3.52032H126.025V20.8379H129.426V3.52032H136.511V0.293945H118.937Z" fill="white"/>
<path d="M77.0996 10.562C76.1964 9.97824 73.7011 8.90452 72.5618 8.40415C71.8975 8.11227 70.9696 7.71092 70.341 7.17928C70.0872 6.95395 69.8864 6.68035 69.7515 6.37633C69.6167 6.07231 69.551 5.74472 69.5586 5.41494C69.5289 5.05464 69.6047 4.69356 69.7776 4.37161C69.9506 4.04966 70.214 3.77939 70.5386 3.59066C71.2606 3.18562 72.0856 2.97565 72.9242 2.98343C73.6571 2.98343 75.7902 3.19192 77.429 5.49833L79.8448 3.72096C79.1145 2.56797 78.0778 1.61748 76.8386 0.964763C75.5993 0.312049 74.2012 -0.0199539 72.7842 0.00203586C71.0648 -0.0374514 69.3855 0.498554 68.0405 1.51619C67.4226 1.98582 66.9243 2.58179 66.5828 3.25968C66.2131 3.99594 66.0253 4.80261 66.0338 5.61821C66.0266 6.28482 66.164 6.9457 66.4373 7.55977C66.6947 8.12433 67.0563 8.64065 67.5052 9.08435C67.9688 9.55163 68.4981 9.95592 69.0782 10.2858C69.7193 10.657 70.3809 10.9954 71.0602 11.2995C71.0602 11.2995 74.3544 12.7824 74.7305 12.9701C75.6474 13.4235 76.1333 13.9057 76.3639 14.3774C76.5266 14.7031 76.6101 15.0593 76.6082 15.4198C76.6082 16.3189 76.3035 17.0356 75.6172 17.5464C74.8338 18.1054 73.8669 18.3825 72.8885 18.3282C71.6853 18.3533 70.5058 18.0087 69.5256 17.3457C68.4715 16.715 67.173 15.0002 67.173 15.0002L64.7271 16.7776C65.5666 18.1547 66.7569 19.3098 68.1887 20.1369C69.6372 20.955 71.3029 21.3603 72.9873 21.3044C75.7545 21.2627 77.3577 20.2385 78.0083 19.7407C79.9299 18.2605 80.1303 16.1886 80.1303 15.2687C80.1303 13.3896 79.1667 11.8885 77.0996 10.562Z" fill="white"/>
<path d="M23.5466 20.8384H29.7919H32.7897H39.035V17.6094H23.5466V20.8384Z" fill="white"/>
</svg>
