<svg width="212" height="36" viewBox="0 0 212 36" fill="none" xmlns="http://www.w3.org/2000/svg">
<path d="M89.1614 22.4776L68.8361 0.480957H66.9644V34.0921H72.3324V11.8822L92.7089 34.0921H94.5295V0.480957H89.1614V22.4776Z" fill="black"/>
<path d="M172.066 0.480957H166.787V34.0921H187.176V28.8093H172.066V0.480957Z" fill="black"/>
<path d="M48.5621 0.00331256C45.8645 0.00752758 43.2287 0.811315 40.9878 2.3131C38.7468 3.81488 37.0013 5.94725 35.9719 8.44073C34.9425 10.9342 34.6754 13.6769 35.2042 16.3222C35.7331 18.9674 37.0342 21.3966 38.9432 23.3026C40.8522 25.2086 43.2834 26.5059 45.9295 27.0307C48.5756 27.5554 51.3178 27.284 53.8097 26.2507C56.3016 25.2173 58.4312 23.4686 59.9295 21.2253C61.4278 18.982 62.2274 16.3449 62.2274 13.6473C62.2274 11.8538 61.8738 10.0778 61.1868 8.42105C60.4998 6.76429 59.4929 5.25924 58.2237 3.992C56.9545 2.72476 55.4478 1.72019 53.79 1.03577C52.1322 0.351354 50.3557 0.000510134 48.5621 0.00331256ZM53.5251 19.1561C54.2168 17.6006 54.6074 15.9281 54.6763 14.2272H58.437C58.3073 16.5624 57.3506 18.7752 55.738 20.4693C55.0493 19.954 54.3074 19.5138 53.5251 19.1561ZM49.1249 18.0901V14.2272H53.5507C53.4785 15.7844 53.1155 17.3144 52.4805 18.7382C51.3982 18.3647 50.2685 18.1465 49.1249 18.0901ZM51.9689 19.7573C51.2372 21.0757 50.2738 22.2514 49.1249 23.2279V19.22C50.0929 19.269 51.0497 19.4497 51.9689 19.7573ZM52.2076 7.99784C53.0121 9.58917 53.4699 11.333 53.5507 13.1143H49.1249V8.56065C50.1727 8.50852 51.2091 8.31931 52.2076 7.99784ZM49.1249 7.43076V4.10077C50.111 4.93192 50.9649 5.90809 51.6576 6.99586C50.8335 7.24035 49.9834 7.38634 49.1249 7.43076ZM54.6678 13.1015C54.5856 11.1917 54.1064 9.31997 53.2608 7.60557C53.9872 7.29339 54.6813 6.91066 55.333 6.46289C57.1788 8.19632 58.2871 10.5733 58.4284 13.1015H54.6678ZM54.429 5.70821C53.8884 6.05934 53.3177 6.36183 52.7235 6.61212C52.1227 5.65038 51.4068 4.76552 50.5917 3.97712C51.9831 4.27123 53.2948 4.86165 54.4376 5.70821H54.429ZM44.6224 18.7382C43.9835 17.3158 43.6203 15.785 43.5522 14.2272H47.9737V18.0901C46.8402 18.1489 45.7207 18.3671 44.648 18.7382H44.6224ZM47.9737 19.22V23.2279C46.8272 22.249 45.8642 21.0738 45.1298 19.7573C46.0573 19.448 47.0228 19.2673 47.9993 19.22H47.9737ZM41.3905 20.4693C39.777 18.7741 38.8202 16.5596 38.6916 14.2229H42.4522C42.5217 15.9233 42.9108 17.5954 43.5991 19.1518C42.818 19.5109 42.0776 19.9526 41.3905 20.4693ZM41.787 6.45863C42.4387 6.9064 43.1328 7.28913 43.8592 7.60131C43.0103 9.31448 42.5309 11.1869 42.4522 13.0973H38.6916C38.8339 10.5706 39.9422 8.19527 41.787 6.46289V6.45863ZM43.5778 13.0973C43.6572 11.3163 44.1135 9.5724 44.9166 7.98078C45.9154 8.30154 46.9517 8.49074 47.9993 8.5436V13.1015L43.5778 13.0973ZM45.488 6.99159C46.1741 5.9053 47.0208 4.9292 47.9993 4.09651V7.4265C47.1482 7.38215 46.3052 7.23761 45.488 6.99586V6.99159ZM44.4092 6.61212C43.8151 6.36183 43.2444 6.05934 42.7037 5.70821C43.8436 4.86206 45.1524 4.27162 46.5411 3.97712C45.726 4.76552 45.0101 5.65038 44.4092 6.61212ZM42.2219 21.2624C42.808 20.8337 43.4367 20.4665 44.098 20.1666C44.7505 21.3444 45.5738 22.4191 46.5411 23.3559C44.9507 23.025 43.4669 22.3058 42.2219 21.2624ZM53.0305 20.1666C53.6918 20.4665 54.3205 20.8337 54.9066 21.2624C53.6628 22.3052 52.1806 23.0244 50.5917 23.3559C51.5561 22.4176 52.3777 21.3431 53.0305 20.1666Z" fill="black"/>
<path d="M17.9185 30.0586C15.7398 30.0587 13.5981 29.4951 11.7015 28.4227C9.80499 27.3502 8.21817 25.8054 7.09527 23.9383C5.97237 22.0712 5.35159 19.9454 5.29328 17.7674C5.23497 15.5894 5.7411 13.4334 6.76248 11.5089C7.78386 9.58438 9.28575 7.95684 11.1222 6.78445C12.9586 5.61206 15.0671 4.9347 17.2427 4.81821C19.4184 4.70172 21.5871 5.15006 23.5382 6.11965C25.4894 7.08924 27.1565 8.5471 28.3775 10.3515L32.2149 7.50762C30.0969 4.45239 27.0572 2.15475 23.5401 0.950598C20.023 -0.253556 16.2129 -0.30108 12.6668 0.814973C9.12075 1.93103 6.02466 4.15213 3.83117 7.15359C1.63768 10.155 0.461813 13.7795 0.475459 17.497C0.489106 21.2145 1.69155 24.8302 3.90702 27.8154C6.12249 30.8007 9.23479 32.999 12.789 34.089C16.3431 35.179 20.1528 35.1035 23.6609 33.8736C27.1691 32.6436 30.1919 30.3237 32.2874 27.253L28.4201 24.4006C27.2728 26.1373 25.7132 27.5629 23.8808 28.5501C22.0484 29.5374 20 30.0556 17.9185 30.0586Z" fill="black"/>
<path d="M153.395 20.9768C153.42 22.1214 153.217 23.2596 152.796 24.3245C152.376 25.3895 151.747 26.3597 150.946 27.1782C150.146 27.9968 149.19 28.6472 148.135 29.0912C147.079 29.5352 145.946 29.7639 144.801 29.7639C143.656 29.7639 142.523 29.5352 141.467 29.0912C140.412 28.6472 139.456 27.9968 138.656 27.1782C137.855 26.3597 137.226 25.3895 136.806 24.3245C136.385 23.2596 136.182 22.1214 136.208 20.9768V0.480957H130.925V20.9768C130.892 22.8195 131.227 24.6502 131.91 26.3621C132.593 28.0739 133.61 29.6326 134.902 30.9472C136.194 32.2618 137.734 33.3059 139.434 34.0187C141.134 34.7314 142.958 35.0985 144.801 35.0985C146.644 35.0985 148.469 34.7314 150.168 34.0187C151.868 33.3059 153.409 32.2618 154.7 30.9472C155.992 29.6326 157.009 28.0739 157.692 26.3621C158.375 24.6502 158.71 22.8195 158.677 20.9768V0.480957H153.395V20.9768Z" fill="black"/>
<path d="M184.704 0.480957V5.75948H195.713V34.0921H200.995V5.75948H212V0.480957H184.704Z" fill="black"/>
<path d="M119.724 17.28C118.321 16.325 114.446 14.5683 112.676 13.7497C111.644 13.2721 110.203 12.6155 109.227 11.7457C108.833 11.377 108.521 10.9294 108.311 10.432C108.102 9.93463 108 9.39867 108.012 8.85913C107.965 8.26967 108.083 7.67892 108.352 7.15219C108.62 6.62547 109.029 6.18328 109.534 5.87451C110.655 5.21185 111.936 4.86832 113.239 4.88106C114.377 4.88106 117.69 5.22216 120.236 8.99557L123.988 6.0877C122.854 4.20134 121.243 2.64628 119.319 1.57841C117.394 0.510529 115.222 -0.0326456 113.021 0.00333077C110.351 -0.0612725 107.743 0.815662 105.654 2.48057C104.694 3.24892 103.92 4.22396 103.39 5.33301C102.815 6.53757 102.524 7.85734 102.537 9.1917C102.526 10.2823 102.739 11.3636 103.164 12.3682C103.563 13.2918 104.125 14.1366 104.822 14.8625C105.542 15.627 106.364 16.2884 107.265 16.8281C108.261 17.4355 109.289 17.9891 110.344 18.4867C110.344 18.4867 115.46 20.9127 116.044 21.2197C117.469 21.9616 118.223 22.7504 118.581 23.5222C118.834 24.055 118.964 24.6379 118.961 25.2277C118.961 26.6986 118.488 27.8712 117.422 28.7069C116.205 29.6215 114.703 30.0747 113.183 29.986C111.315 30.0271 109.483 29.4633 107.96 28.3786C106.323 27.3467 104.306 24.5412 104.306 24.5412L100.507 27.4491C101.811 29.7021 103.66 31.5918 105.884 32.945C108.134 34.2835 110.721 34.9466 113.337 34.8552C117.635 34.787 120.125 33.1113 121.135 32.2969C124.12 29.8751 124.431 26.4855 124.431 24.9804C124.431 21.9062 122.935 19.4503 119.724 17.28Z" fill="black"/>
<path d="M36.5469 34.092H46.2469H50.9029H60.6029V28.8092H36.5469V34.092Z" fill="black"/>
</svg>
